# xmcd
#
# Track frame offsets: 
#        150
#        22557
#        39111
#        62835
#        116819
#        142181
#        192619
#        242478
#        283832
#
# Disc length: 4332 seconds
#
# Revision: 5
# Processed by: cddbd v1.5.2PL0 Copyright (c) Steve Scherf et al.
# Submitted via: ExactAudioCopy v0.99pb4
#
DISCID=7e10ea09
DTITLE=Johnny Winter - Second Winter: Legacy Edition [disc 2]
DYEAR=2004
DGENRE=Blues-Rock
TTITLE0=Help Me
TTITLE1=Johnny B. Goode
TTITLE2=Mama Talk to Your Daughter
TTITLE3=It's My Own Fault
TTITLE4=Black Cat Bone
TTITLE5=Mean Town Blues
TTITLE6=Tobacco Road
TTITLE7=Frankenstein
TTITLE8=Tell the Truth
EXTD=Johnny Winter: vocals, electric guitar, slide guitar\nEdgar Winte
EXTD=r: vocals (lead: track 8 - co-lead: 10), sax, keyboards\nTommy Sha
EXTD=nnon: bass\nJohn Turner: drums\nDisc 2 recorded live at Royal Alb
EXTD=ert Hall, London GB-WSM, 1970-04-17.\nRecorded and mixed by Bob A
EXTD=uger - previously unissued.\nLegacy Edition produced by Jerry Rapp
EXTD=aport.\nMastered by Joseph M. Palmaccio at Sony Music Studios, Ne
EXTD=w York US-NY.\n2CD: Columbia/Legacy C2K 85735 (2004-10-19), UPC 6
EXTD=96998573529.
EXTT0=(Ralph Bass/Willie Dixon/Sonny Boy Williamson [II])
EXTT1=(Chuck Berry)
EXTT2=(Alex Atkins/J.B. Lenoir)
EXTT3=(Riley B. King/Jules Taub)
EXTT4=(Johnny Winter)
EXTT5=(Johnny Winter)
EXTT6=(John D. Loudermilk)
EXTT7=(Edgar Winter)
EXTT8=(Lowman Pauling)
PLAYORDER=
